<svg width="24" height="24" viewBox="0 0 24 24" fill="none" xmlns="http://www.w3.org/2000/svg">
<rect width="24" height="24" rx="5" fill="#262A30"/>
<path fill-rule="evenodd" clip-rule="evenodd" d="M12.0984 6.15151C12.3145 8.04151 11.6011 9.70012 10.5051 9.85611C9.409 10.0121 8.3453 8.60642 8.12923 6.71642C7.91316 4.82642 8.62653 3.16782 9.7226 3.01182C10.8187 2.85583 11.8824 4.26152 12.0984 6.15151ZM14.9092 20.6106C16.5824 21.2122 17.7231 21.6224 17.7231 17.824C17.7231 14.3559 15.3656 11.5444 12.4575 11.5444C9.5494 11.5444 7.19192 14.3559 7.19192 17.824C7.19192 20.868 8.46983 20.6349 10.3045 20.3002C10.9618 20.1802 11.6905 20.0473 12.4575 20.0473C13.3427 20.0473 14.1769 20.3473 14.9092 20.6106ZM11.6511 16.8464C11.6343 17.0688 11.801 17.2626 12.0234 17.2794L12.5605 17.32C12.7088 17.3311 12.838 17.22 12.8492 17.0718C12.8843 16.6071 13.2054 16.3689 13.55 16.1133C13.9487 15.8175 14.3787 15.4986 14.4331 14.7786C14.5062 13.8098 13.8314 13.0418 12.5644 12.9462C11.5651 12.8707 10.8152 13.258 10.5158 14.0736C10.403 14.3808 10.6559 14.6749 10.9821 14.6996C11.289 14.7227 11.5356 14.4856 11.6998 14.2253C11.8555 13.9784 12.1085 13.8482 12.4715 13.8756C13.0009 13.9155 13.2581 14.2471 13.2258 14.6749C13.1919 15.1234 12.8636 15.3595 12.5151 15.6102C12.1206 15.8939 11.7002 16.1962 11.6511 16.8464ZM11.4902 18.3148C11.4677 18.6136 11.6916 18.8741 11.9904 18.8967L12.2161 18.9137C12.5149 18.9362 12.7754 18.7123 12.798 18.4135C12.8205 18.1147 12.5966 17.8542 12.2978 17.8316L12.0721 17.8146C11.7733 17.792 11.5128 18.016 11.4902 18.3148ZM7.50513 13.2347C8.36142 12.6855 8.42446 11.1939 7.64593 9.90314C6.86741 8.61236 5.54213 8.01118 4.68584 8.56037C3.82955 9.10955 3.76651 10.6011 4.54503 11.8919C5.32356 13.1827 6.64884 13.7839 7.50513 13.2347ZM17.0267 9.90314C16.2482 11.1939 16.3112 12.6855 17.1675 13.2347C18.0238 13.7839 19.3491 13.1827 20.1276 11.8919C20.9061 10.6011 20.8431 9.10955 19.9868 8.56037C19.1305 8.01118 17.8052 8.61236 17.0267 9.90314ZM14.5539 9.85611C13.4579 9.70012 12.7445 8.04151 12.9606 6.15151C13.1766 4.26152 14.2403 2.85583 15.3364 3.01182C16.4325 3.16782 17.1458 4.82642 16.9298 6.71642C16.7137 8.60642 15.65 10.0121 14.5539 9.85611Z" fill="#F2C94C"/>
</svg>
