<svg width="250" height="116" viewBox="0 0 250 116" fill="none" xmlns="http://www.w3.org/2000/svg">
<path fill-rule="evenodd" clip-rule="evenodd" d="M123.868 13.1798C124.771 21.0838 121.788 28.0202 117.204 28.6725C112.62 29.3249 108.172 23.4463 107.268 15.5422C106.365 7.63818 109.348 0.701825 113.932 0.04945C118.516 -0.602925 122.964 5.27572 123.868 13.1798ZM135.622 73.6481C142.62 76.1644 147.39 77.8798 147.39 61.9948C147.39 47.4907 137.531 35.7328 125.369 35.7328C113.207 35.7328 103.348 47.4907 103.348 61.9948C103.348 74.7249 108.693 73.7498 116.366 72.35C119.114 71.8485 122.162 71.2925 125.369 71.2925C129.071 71.2925 132.56 72.547 135.622 73.6481ZM121.997 57.9062C121.927 58.8362 122.624 59.647 123.554 59.7172L125.8 59.8867C126.42 59.9335 126.96 59.4688 127.007 58.8489C127.154 56.9055 128.497 55.9092 129.938 54.8403C131.605 53.6035 133.404 52.2695 133.631 49.2587C133.937 45.207 131.115 41.9952 125.816 41.5953C121.637 41.2799 118.501 42.8995 117.249 46.3105C116.777 47.5948 117.835 48.8251 119.199 48.928C120.482 49.0249 121.514 48.0331 122.2 46.9447C122.851 45.9123 123.91 45.3675 125.428 45.482C127.642 45.6491 128.717 47.0357 128.582 48.8247C128.441 50.7008 127.068 51.6881 125.61 52.7364C123.96 53.9227 122.202 55.1872 121.997 57.9062ZM121.324 64.0471C121.23 65.2967 122.166 66.3862 123.416 66.4805L124.36 66.5517C125.609 66.6461 126.699 65.7095 126.793 64.4598C126.887 63.2102 125.951 62.1207 124.701 62.0264L123.757 61.9552C122.508 61.8609 121.418 62.7974 121.324 64.0471ZM104.659 42.8015C108.24 40.5048 108.503 34.267 105.247 28.8689C101.992 23.4708 96.4492 20.9567 92.8682 23.2534C89.2872 25.5501 89.0235 31.7879 92.2794 37.186C95.5352 42.5841 101.078 45.0983 104.659 42.8015ZM144.477 28.8689C141.221 34.267 141.485 40.5048 145.066 42.8015C148.647 45.0983 154.189 42.5841 157.445 37.186C160.701 31.7879 160.437 25.5501 156.856 23.2534C153.275 20.9567 147.733 23.4708 144.477 28.8689ZM134.136 28.6725C129.552 28.0202 126.569 21.0838 127.473 13.1798C128.376 5.27572 132.825 -0.602925 137.408 0.04945C141.992 0.701825 144.976 7.63818 144.072 15.5422C143.168 23.4463 138.72 29.3249 134.136 28.6725Z" fill="#FDCD5C"/>
<path d="M13.718 91.5753C12.3681 91.5753 11.1195 91.813 9.97211 92.2884C8.83597 92.7527 7.8517 93.4271 7.01928 94.3115C6.19812 95.1848 5.55693 96.2461 5.09573 97.4953C4.63453 98.7335 4.40393 100.121 4.40393 101.658C4.40393 103.205 4.6514 104.604 5.14635 105.853C5.65255 107.091 6.33873 108.147 7.20489 109.02C8.0823 109.894 9.11157 110.568 10.2927 111.043C11.4738 111.508 12.7393 111.74 14.0892 111.74C15.0678 111.74 15.9509 111.613 16.7383 111.358C17.5257 111.093 18.2344 110.717 18.8643 110.231V102.52H14.6291V101.21H22.6271V110.877C21.9746 111.22 21.3166 111.524 20.6529 111.789C19.9892 112.055 19.2693 112.276 18.4931 112.453C17.7282 112.63 16.8845 112.762 15.9621 112.851C15.0397 112.95 13.9936 113 12.8237 113C11.5863 113 10.4108 112.862 9.29718 112.585C8.18354 112.32 7.14865 111.939 6.19249 111.441C5.24759 110.944 4.39268 110.352 3.62775 109.667C2.86283 108.97 2.2104 108.202 1.67045 107.362C1.14176 106.522 0.731175 105.621 0.438705 104.659C0.146235 103.697 0 102.697 0 101.658C0 100.629 0.134986 99.6289 0.404959 98.6561C0.68618 97.6722 1.08551 96.7491 1.60296 95.8868C2.12041 95.0135 2.75034 94.2175 3.49277 93.4989C4.23519 92.7803 5.07323 92.1613 6.00689 91.6417C6.94054 91.1221 7.95856 90.7186 9.06095 90.4311C10.1633 90.1437 11.3332 90 12.5706 90C13.7517 90 14.8429 90.1603 15.844 90.4809C16.8564 90.7904 17.7732 91.205 18.5944 91.7246C19.4268 92.2442 20.1636 92.8467 20.8048 93.5321C21.4459 94.2064 21.9971 94.914 22.4583 95.6547L20.8385 96.7159C19.8936 94.9361 18.8418 93.6371 17.6832 92.819C16.5358 91.9899 15.2141 91.5753 13.718 91.5753Z" fill="#FDCD5C"/>
<path d="M31.8061 95.5054V107.594C31.8061 108.014 31.9017 108.412 32.093 108.788C32.2955 109.164 32.5711 109.49 32.9198 109.766C33.2685 110.043 33.6678 110.264 34.1178 110.43C34.579 110.584 35.0739 110.662 35.6026 110.662C35.9401 110.662 36.3 110.59 36.6825 110.446C37.0762 110.303 37.4587 110.109 37.8299 109.866C38.2011 109.612 38.5442 109.319 38.8592 108.987C39.1854 108.644 39.461 108.285 39.6859 107.909V95.5054H43.0944V112.486H39.6859V109.302C39.3822 109.789 38.9998 110.247 38.5386 110.678C38.0886 111.11 37.5993 111.485 37.0706 111.806C36.5419 112.127 35.9963 112.381 35.4339 112.569C34.8714 112.757 34.3371 112.851 33.8309 112.851C33.0772 112.851 32.3686 112.713 31.7049 112.436C31.0412 112.16 30.4619 111.784 29.9669 111.309C29.472 110.833 29.0783 110.275 28.7858 109.634C28.5046 108.993 28.364 108.313 28.364 107.594V95.5054H31.8061Z" fill="#FDCD5C"/>
<path d="M56.4917 112.851C55.3219 112.851 54.2195 112.635 53.1846 112.204C52.1609 111.773 51.2666 111.187 50.5017 110.446C49.7368 109.706 49.1294 108.838 48.6794 107.843C48.2407 106.837 48.0213 105.77 48.0213 104.642C48.0213 103.283 48.2238 102.028 48.6288 100.878C49.0337 99.7174 49.6074 98.7169 50.3499 97.8767C51.0923 97.0365 51.9809 96.3788 53.0158 95.9034C54.062 95.428 55.2262 95.1903 56.5086 95.1903C57.6335 95.1903 58.6684 95.3893 59.6133 95.7873C60.5582 96.1742 61.3681 96.6994 62.043 97.3627C62.7292 98.0149 63.2579 98.7722 63.6291 99.6345C64.0116 100.497 64.2028 101.398 64.2028 102.337H51.3285C51.3285 103.476 51.4747 104.532 51.7672 105.505C52.0709 106.478 52.4928 107.318 53.0327 108.025C53.5727 108.733 54.2138 109.286 54.9563 109.683C55.6987 110.081 56.5142 110.28 57.4029 110.28C58.1453 110.28 58.8596 110.164 59.5458 109.932C60.232 109.689 60.8507 109.374 61.4019 108.987C61.9643 108.6 62.4424 108.158 62.8361 107.66C63.2298 107.163 63.5054 106.649 63.6629 106.118L64.6584 106.549C64.4109 107.423 64.0116 108.241 63.4604 109.004C62.9092 109.766 62.2624 110.435 61.52 111.01C60.7888 111.574 59.9901 112.022 59.124 112.353C58.2578 112.685 57.3804 112.851 56.4917 112.851ZM59.9001 100.978C59.9001 100.336 59.782 99.7395 59.5458 99.1867C59.3208 98.634 59.0059 98.1586 58.6009 97.7606C58.1959 97.3516 57.7235 97.031 57.1835 96.7988C56.6436 96.5667 56.0643 96.4506 55.4456 96.4506C54.9281 96.4506 54.4332 96.5667 53.9607 96.7988C53.4883 97.0199 53.0665 97.335 52.6952 97.7441C52.324 98.142 52.0147 98.6174 51.7672 99.1702C51.531 99.7229 51.3904 100.32 51.3454 100.961L59.9001 100.978Z" fill="#FDCD5C"/>
<path d="M74.7486 111.673C75.2098 111.673 75.6373 111.607 76.031 111.474C76.4247 111.331 76.7622 111.143 77.0434 110.911C77.3359 110.678 77.5608 110.413 77.7183 110.115C77.8758 109.805 77.9545 109.49 77.9545 109.169C77.9545 108.65 77.8196 108.197 77.5496 107.81C77.2909 107.423 76.9421 107.08 76.5034 106.782C76.076 106.472 75.5867 106.19 75.0355 105.936C74.4843 105.682 73.9218 105.422 73.3481 105.156C72.7744 104.88 72.212 104.593 71.6608 104.294C71.1096 103.985 70.6147 103.625 70.176 103.216C69.7485 102.807 69.3998 102.337 69.1298 101.807C68.8711 101.265 68.7417 100.635 68.7417 99.9164C68.7417 99.242 68.888 98.6174 69.1804 98.0425C69.4729 97.4566 69.8779 96.9536 70.3953 96.5335C70.924 96.1134 71.5483 95.7873 72.2682 95.5552C72.9882 95.3119 73.7756 95.1903 74.6305 95.1903C75.2042 95.1903 75.7385 95.229 76.2335 95.3064C76.7284 95.3838 77.2121 95.533 77.6846 95.7541C78.1683 95.9752 78.6463 96.2958 79.1188 96.7159C79.5913 97.125 80.0918 97.6611 80.6205 98.3244L79.355 99.4355C78.7026 98.3852 77.9714 97.6059 77.1615 97.0973C76.3628 96.5777 75.5079 96.318 74.5968 96.318C74.1018 96.318 73.6519 96.3788 73.2469 96.5004C72.8419 96.6109 72.4932 96.7712 72.2008 96.9813C71.9195 97.1802 71.6946 97.4179 71.5258 97.6943C71.3683 97.9707 71.2896 98.2636 71.2896 98.5732C71.2896 99.0817 71.4302 99.5239 71.7114 99.8998C72.0039 100.276 72.3864 100.618 72.8588 100.928C73.3313 101.226 73.8656 101.503 74.4618 101.757C75.0692 102.011 75.6823 102.271 76.301 102.536C76.9309 102.802 77.544 103.089 78.1401 103.399C78.7476 103.708 79.2875 104.068 79.76 104.477C80.2324 104.875 80.6093 105.339 80.8905 105.87C81.183 106.4 81.3292 107.019 81.3292 107.727C81.3292 108.445 81.1942 109.12 80.9242 109.75C80.6543 110.369 80.2437 110.911 79.6925 111.375C79.1525 111.828 78.472 112.187 77.6508 112.453C76.8297 112.718 75.8623 112.851 74.7486 112.851C74.2424 112.851 73.7194 112.812 73.1794 112.735C72.6507 112.657 72.1164 112.508 71.5764 112.287C71.0365 112.055 70.4966 111.734 69.9566 111.325C69.4167 110.916 68.888 110.38 68.3705 109.717L69.771 108.473C70.1872 109.048 70.5865 109.54 70.969 109.949C71.3515 110.347 71.7396 110.678 72.1333 110.944C72.5382 111.198 72.9488 111.386 73.365 111.508C73.7925 111.618 74.2537 111.673 74.7486 111.673Z" fill="#FDCD5C"/>
<path d="M91.4194 111.673C91.8806 111.673 92.3081 111.607 92.7018 111.474C93.0955 111.331 93.433 111.143 93.7142 110.911C94.0067 110.678 94.2316 110.413 94.3891 110.115C94.5466 109.805 94.6253 109.49 94.6253 109.169C94.6253 108.65 94.4904 108.197 94.2204 107.81C93.9617 107.423 93.6129 107.08 93.1742 106.782C92.7468 106.472 92.2575 106.19 91.7063 105.936C91.1551 105.682 90.5926 105.422 90.0189 105.156C89.4452 104.88 88.8828 104.593 88.3316 104.294C87.7804 103.985 87.2855 103.625 86.8468 103.216C86.4193 102.807 86.0706 102.337 85.8006 101.807C85.5419 101.265 85.4125 100.635 85.4125 99.9164C85.4125 99.242 85.5588 98.6174 85.8512 98.0425C86.1437 97.4566 86.5487 96.9536 87.0661 96.5335C87.5948 96.1134 88.2191 95.7873 88.939 95.5552C89.659 95.3119 90.4464 95.1903 91.3013 95.1903C91.875 95.1903 92.4093 95.229 92.9043 95.3064C93.3992 95.3838 93.8829 95.533 94.3554 95.7541C94.8391 95.9752 95.3171 96.2958 95.7896 96.7159C96.262 97.125 96.7626 97.6611 97.2913 98.3244L96.0258 99.4355C95.3734 98.3852 94.6422 97.6059 93.8323 97.0973C93.0336 96.5777 92.1787 96.318 91.2676 96.318C90.7726 96.318 90.3227 96.3788 89.9177 96.5004C89.5127 96.6109 89.164 96.7712 88.8716 96.9813C88.5903 97.1802 88.3654 97.4179 88.1966 97.6943C88.0391 97.9707 87.9604 98.2636 87.9604 98.5732C87.9604 99.0817 88.101 99.5239 88.3822 99.8998C88.6747 100.276 89.0572 100.618 89.5296 100.928C90.0021 101.226 90.5364 101.503 91.1326 101.757C91.74 102.011 92.3531 102.271 92.9718 102.536C93.6017 102.802 94.2148 103.089 94.8109 103.399C95.4184 103.708 95.9583 104.068 96.4308 104.477C96.9032 104.875 97.2801 105.339 97.5613 105.87C97.8538 106.4 98 107.019 98 107.727C98 108.445 97.865 109.12 97.595 109.75C97.3251 110.369 96.9145 110.911 96.3633 111.375C95.8233 111.828 95.1428 112.187 94.3216 112.453C93.5005 112.718 92.5331 112.851 91.4194 112.851C90.9132 112.851 90.3901 112.812 89.8502 112.735C89.3215 112.657 88.7872 112.508 88.2472 112.287C87.7073 112.055 87.1674 111.734 86.6274 111.325C86.0875 110.916 85.5588 110.38 85.0413 109.717L86.4418 108.473C86.858 109.048 87.2573 109.54 87.6398 109.949C88.0223 110.347 88.4104 110.678 88.8041 110.944C89.209 111.198 89.6196 111.386 90.0358 111.508C90.4633 111.618 90.9245 111.673 91.4194 111.673Z" fill="#FDCD5C"/>
<path d="M117.739 93.648V95.074H109.73V115.635H106.009V95.074H98V93.648H117.739Z" fill="#BCB5A9"/>
<path d="M124.78 101.773C125.793 100.623 126.86 99.7666 127.984 99.2028C129.107 98.628 130.242 98.3406 131.388 98.3406C131.988 98.3406 132.545 98.4732 133.056 98.7385C133.579 99.0038 134.035 99.3686 134.424 99.8329C134.814 100.297 135.12 100.844 135.342 101.474C135.565 102.094 135.676 102.757 135.676 103.464V115.635H132.289V104.045C132.289 102.917 132.033 102.066 131.521 101.491C131.01 100.905 130.353 100.612 129.552 100.612C129.196 100.612 128.818 100.673 128.418 100.795C128.017 100.916 127.611 101.088 127.2 101.309C126.788 101.519 126.377 101.773 125.965 102.071C125.553 102.37 125.158 102.702 124.78 103.066V115.635H121.376V90.9617L123.813 90H124.78V101.773Z" fill="#BCB5A9"/>
<path d="M148.924 116C147.767 116 146.677 115.784 145.654 115.353C144.642 114.922 143.757 114.336 143.001 113.596C142.244 112.855 141.644 111.987 141.199 110.992C140.765 109.986 140.548 108.92 140.548 107.792C140.548 106.432 140.748 105.178 141.149 104.028C141.549 102.867 142.117 101.867 142.851 101.027C143.585 100.187 144.464 99.5289 145.487 99.0536C146.521 98.5782 147.673 98.3406 148.941 98.3406C150.053 98.3406 151.077 98.5395 152.011 98.9375C152.945 99.3244 153.746 99.8495 154.414 100.513C155.092 101.165 155.615 101.922 155.982 102.784C156.36 103.647 156.549 104.548 156.549 105.487H143.818C143.818 106.626 143.963 107.682 144.252 108.654C144.553 109.627 144.97 110.467 145.504 111.175C146.038 111.882 146.672 112.435 147.406 112.833C148.14 113.231 148.946 113.43 149.825 113.43C150.559 113.43 151.266 113.314 151.944 113.082C152.623 112.838 153.235 112.523 153.78 112.136C154.336 111.75 154.809 111.307 155.198 110.81C155.587 110.312 155.86 109.798 156.016 109.268L157 109.699C156.755 110.572 156.36 111.39 155.815 112.153C155.27 112.916 154.631 113.585 153.896 114.159C153.173 114.723 152.384 115.171 151.527 115.503C150.671 115.834 149.803 116 148.924 116ZM152.295 104.128C152.295 103.486 152.178 102.889 151.944 102.337C151.722 101.784 151.41 101.309 151.01 100.911C150.609 100.502 150.142 100.181 149.608 99.949C149.074 99.7168 148.502 99.6008 147.89 99.6008C147.378 99.6008 146.889 99.7168 146.421 99.949C145.954 100.17 145.537 100.485 145.17 100.894C144.803 101.292 144.497 101.767 144.252 102.32C144.019 102.873 143.88 103.47 143.835 104.111L152.295 104.128Z" fill="#BCB5A9"/>
<path d="M157 93.648H165.987C167.176 93.648 168.265 93.7806 169.252 94.0459C170.25 94.3002 171.103 94.665 171.81 95.1403C172.528 95.6156 173.083 96.1849 173.476 96.8482C173.869 97.5115 174.065 98.2411 174.065 99.037C174.065 99.645 174.003 100.187 173.88 100.662C173.757 101.137 173.538 101.58 173.224 101.989C172.91 102.386 172.489 102.768 171.961 103.133C171.445 103.486 170.789 103.851 169.992 104.227V104.293C170.789 104.415 171.507 104.625 172.147 104.923C172.786 105.222 173.33 105.603 173.779 106.068C174.239 106.521 174.592 107.057 174.839 107.676C175.086 108.284 175.21 108.953 175.21 109.682C175.21 110.511 175.024 111.291 174.654 112.02C174.295 112.739 173.773 113.369 173.089 113.911C172.416 114.441 171.597 114.861 170.632 115.171C169.678 115.48 168.607 115.635 167.417 115.635H157V93.648ZM160.753 103.547H165.533C166.284 103.547 166.952 103.442 167.535 103.232C168.119 103.022 168.612 102.735 169.016 102.37C169.42 101.994 169.723 101.552 169.925 101.043C170.138 100.524 170.245 99.9656 170.245 99.3686C170.245 98.7275 170.121 98.1471 169.875 97.6276C169.628 97.0969 169.241 96.6437 168.713 96.2679C168.197 95.892 167.535 95.6046 166.727 95.4056C165.931 95.2066 164.972 95.1071 163.85 95.1071H160.753V103.547ZM160.753 114.027H164.809C165.897 114.027 166.84 113.927 167.636 113.728C168.444 113.518 169.106 113.231 169.622 112.866C170.149 112.49 170.537 112.043 170.783 111.523C171.041 111.003 171.17 110.434 171.17 109.815C171.17 109.119 171.058 108.472 170.834 107.875C170.609 107.278 170.239 106.764 169.723 106.333C169.218 105.891 168.551 105.543 167.72 105.288C166.901 105.034 165.892 104.907 164.691 104.907H160.753V114.027Z" fill="#1469D0"/>
<path d="M182.227 98.3406H182.749L183.204 101.806C183.473 101.298 183.809 100.833 184.213 100.413C184.617 99.9932 185.06 99.6284 185.543 99.3189C186.037 99.0094 186.553 98.7717 187.091 98.6059C187.641 98.429 188.196 98.3406 188.757 98.3406C189.262 98.3406 189.756 98.4069 190.238 98.5395C190.732 98.6722 191.192 98.8822 191.618 99.1696L190.541 102.005C190.317 101.762 190.081 101.568 189.834 101.425C189.588 101.27 189.335 101.154 189.077 101.077C188.819 100.988 188.555 100.933 188.286 100.911C188.017 100.889 187.748 100.878 187.478 100.878C187.052 100.878 186.631 100.938 186.216 101.06C185.812 101.182 185.425 101.364 185.055 101.607C184.685 101.839 184.342 102.143 184.028 102.519C183.714 102.884 183.439 103.315 183.204 103.812V115.635H179.787V99.2691L182.227 98.3406Z" fill="#1469D0"/>
<path d="M201.48 116C200.314 116 199.214 115.784 198.182 115.353C197.161 114.922 196.269 114.336 195.506 113.596C194.743 112.855 194.137 111.987 193.688 110.992C193.251 109.986 193.032 108.92 193.032 107.792C193.032 106.432 193.234 105.178 193.638 104.028C194.042 102.867 194.614 101.867 195.355 101.027C196.095 100.187 196.981 99.5289 198.014 99.0536C199.057 98.5782 200.218 98.3406 201.497 98.3406C202.619 98.3406 203.651 98.5395 204.594 98.9375C205.536 99.3244 206.344 99.8495 207.017 100.513C207.702 101.165 208.229 101.922 208.599 102.784C208.981 103.647 209.172 104.548 209.172 105.487H196.331C196.331 106.626 196.476 107.682 196.768 108.654C197.071 109.627 197.492 110.467 198.03 111.175C198.569 111.882 199.208 112.435 199.949 112.833C200.689 113.231 201.503 113.43 202.389 113.43C203.13 113.43 203.842 113.314 204.527 113.082C205.211 112.838 205.828 112.523 206.378 112.136C206.939 111.75 207.416 111.307 207.808 110.81C208.201 110.312 208.476 109.798 208.633 109.268L209.626 109.699C209.379 110.572 208.981 111.39 208.431 112.153C207.881 112.916 207.236 113.585 206.496 114.159C205.766 114.723 204.97 115.171 204.106 115.503C203.242 115.834 202.367 116 201.48 116ZM204.88 104.128C204.88 103.486 204.762 102.889 204.527 102.337C204.302 101.784 203.988 101.309 203.584 100.911C203.18 100.502 202.709 100.181 202.17 99.949C201.632 99.7168 201.054 99.6008 200.437 99.6008C199.921 99.6008 199.427 99.7168 198.956 99.949C198.485 100.17 198.064 100.485 197.694 100.894C197.324 101.292 197.015 101.767 196.768 102.32C196.533 102.873 196.392 103.47 196.347 104.111L204.88 104.128Z" fill="#1469D0"/>
<path d="M221.777 116C220.61 116 219.51 115.784 218.478 115.353C217.457 114.922 216.565 114.336 215.802 113.596C215.039 112.855 214.434 111.987 213.985 110.992C213.547 109.986 213.328 108.92 213.328 107.792C213.328 106.432 213.53 105.178 213.934 104.028C214.338 102.867 214.91 101.867 215.651 101.027C216.391 100.187 217.278 99.5289 218.31 99.0536C219.353 98.5782 220.515 98.3406 221.794 98.3406C222.916 98.3406 223.948 98.5395 224.89 98.9375C225.833 99.3244 226.641 99.8495 227.314 100.513C227.998 101.165 228.526 101.922 228.896 102.784C229.277 103.647 229.468 104.548 229.468 105.487H216.627C216.627 106.626 216.773 107.682 217.065 108.654C217.368 109.627 217.788 110.467 218.327 111.175C218.865 111.882 219.505 112.435 220.245 112.833C220.986 113.231 221.799 113.43 222.686 113.43C223.426 113.43 224.139 113.314 224.823 113.082C225.507 112.838 226.125 112.523 226.674 112.136C227.235 111.75 227.712 111.307 228.105 110.81C228.497 110.312 228.772 109.798 228.929 109.268L229.922 109.699C229.676 110.572 229.277 111.39 228.727 112.153C228.178 112.916 227.533 113.585 226.792 114.159C226.063 114.723 225.266 115.171 224.402 115.503C223.538 115.834 222.663 116 221.777 116ZM225.176 104.128C225.176 103.486 225.059 102.889 224.823 102.337C224.599 101.784 224.284 101.309 223.881 100.911C223.477 100.502 223.005 100.181 222.467 99.949C221.928 99.7168 221.351 99.6008 220.733 99.6008C220.217 99.6008 219.724 99.7168 219.252 99.949C218.781 100.17 218.36 100.485 217.99 100.894C217.62 101.292 217.311 101.767 217.065 102.32C216.829 102.873 216.689 103.47 216.644 104.111L225.176 104.128Z" fill="#1469D0"/>
<path d="M246.6 113.994C246.208 114.303 245.781 114.585 245.321 114.839C244.861 115.082 244.379 115.293 243.874 115.469C243.38 115.635 242.881 115.762 242.376 115.851C241.871 115.95 241.378 116 240.895 116C239.885 116 238.937 115.768 238.051 115.304C237.176 114.839 236.407 114.215 235.745 113.43C235.095 112.645 234.579 111.733 234.197 110.694C233.816 109.644 233.625 108.538 233.625 107.378C233.625 106.228 233.86 105.111 234.332 104.028C234.814 102.945 235.465 101.983 236.284 101.143C237.103 100.292 238.057 99.6118 239.145 99.1033C240.244 98.5948 241.417 98.3406 242.662 98.3406C243.504 98.3406 244.233 98.4843 244.85 98.7717C245.478 99.0591 246.062 99.4405 246.6 99.9158V90.9617L249.007 90H250V115.635H246.6V113.994ZM246.6 104.061C246.6 103.398 246.471 102.795 246.213 102.254C245.967 101.701 245.641 101.231 245.237 100.844C244.833 100.446 244.373 100.142 243.857 99.9324C243.352 99.7113 242.842 99.6008 242.326 99.6008C241.641 99.6008 241.002 99.7666 240.407 100.098C239.813 100.43 239.291 100.9 238.842 101.508C238.404 102.105 238.057 102.823 237.799 103.663C237.541 104.492 237.412 105.41 237.412 106.416C237.412 107.499 237.552 108.511 237.832 109.45C238.113 110.39 238.494 111.213 238.977 111.921C239.47 112.617 240.043 113.17 240.693 113.579C241.355 113.977 242.062 114.176 242.814 114.176C243.173 114.176 243.532 114.132 243.891 114.043C244.261 113.944 244.609 113.817 244.934 113.662C245.26 113.496 245.563 113.308 245.843 113.098C246.135 112.888 246.387 112.667 246.6 112.435V104.061Z" fill="#1469D0"/>
</svg>
