<svg width="400" height="400" viewBox="0 0 400 400" fill="none" xmlns="http://www.w3.org/2000/svg">
<rect width="400" height="400" fill="#3C424B"/>
<path fill-rule="evenodd" clip-rule="evenodd" d="M199.868 152.18C200.771 160.084 197.788 167.02 193.204 167.673C188.62 168.325 184.172 162.446 183.268 154.542C182.365 146.638 185.348 139.702 189.932 139.049C194.516 138.397 198.964 144.276 199.868 152.18ZM211.622 212.648C218.62 215.164 223.39 216.88 223.39 200.995C223.39 186.491 213.531 174.733 201.369 174.733C189.207 174.733 179.348 186.491 179.348 200.995C179.348 213.725 184.693 212.75 192.366 211.35C195.114 210.848 198.162 210.292 201.369 210.292C205.071 210.292 208.56 211.547 211.622 212.648ZM197.997 196.906C197.927 197.836 198.624 198.647 199.554 198.717L201.8 198.887C202.42 198.933 202.96 198.469 203.007 197.849C203.154 195.905 204.497 194.909 205.938 193.84C207.605 192.603 209.404 191.27 209.631 188.259C209.937 184.207 207.115 180.995 201.816 180.595C197.637 180.28 194.501 181.9 193.249 185.31C192.777 186.595 193.835 187.825 195.199 187.928C196.482 188.025 197.514 187.033 198.2 185.945C198.851 184.912 199.91 184.367 201.428 184.482C203.642 184.649 204.717 186.036 204.582 187.825C204.441 189.701 203.068 190.688 201.61 191.736C199.96 192.923 198.202 194.187 197.997 196.906ZM197.324 203.047C197.23 204.297 198.166 205.386 199.416 205.481L200.36 205.552C201.609 205.646 202.699 204.709 202.793 203.46C202.887 202.21 201.951 201.121 200.701 201.026L199.757 200.955C198.508 200.861 197.418 201.797 197.324 203.047ZM180.659 181.802C184.24 179.505 184.503 173.267 181.247 167.869C177.992 162.471 172.449 159.957 168.868 162.253C165.287 164.55 165.024 170.788 168.279 176.186C171.535 181.584 177.078 184.098 180.659 181.802ZM220.477 167.869C217.221 173.267 217.485 179.505 221.066 181.802C224.647 184.098 230.189 181.584 233.445 176.186C236.701 170.788 236.437 164.55 232.856 162.253C229.275 159.957 223.733 162.471 220.477 167.869ZM210.136 167.673C205.552 167.02 202.569 160.084 203.473 152.18C204.376 144.276 208.825 138.397 213.408 139.049C217.992 139.702 220.976 146.638 220.072 154.542C219.168 162.446 214.72 168.325 210.136 167.673Z" fill="#FDCD5C"/>
<path d="M139.406 246.641H141.148V257H139.406V246.641ZM145.109 248.852H145.562V250.508C145.766 250.289 145.995 250.081 146.25 249.883C146.505 249.68 146.768 249.503 147.039 249.352C147.31 249.195 147.581 249.073 147.852 248.984C148.122 248.896 148.38 248.852 148.625 248.852C148.859 248.852 149.096 248.893 149.336 248.977C149.581 249.06 149.805 249.177 150.008 249.328C150.216 249.479 150.393 249.659 150.539 249.867C150.69 250.07 150.789 250.294 150.836 250.539C150.966 250.305 151.146 250.086 151.375 249.883C151.609 249.674 151.867 249.495 152.148 249.344C152.43 249.193 152.727 249.073 153.039 248.984C153.357 248.896 153.667 248.852 153.969 248.852C154.271 248.852 154.552 248.919 154.812 249.055C155.078 249.185 155.31 249.365 155.508 249.594C155.706 249.818 155.862 250.083 155.977 250.391C156.091 250.693 156.148 251.016 156.148 251.359V257H154.562V251.578C154.562 251.354 154.523 251.143 154.445 250.945C154.372 250.742 154.271 250.565 154.141 250.414C154.01 250.263 153.857 250.143 153.68 250.055C153.508 249.966 153.326 249.922 153.133 249.922C152.914 249.922 152.69 249.953 152.461 250.016C152.237 250.073 152.023 250.154 151.82 250.258C151.617 250.362 151.432 250.484 151.266 250.625C151.099 250.76 150.966 250.906 150.867 251.062V257H149.281V251.578C149.281 251.354 149.242 251.143 149.164 250.945C149.086 250.742 148.982 250.565 148.852 250.414C148.721 250.263 148.568 250.143 148.391 250.055C148.214 249.966 148.029 249.922 147.836 249.922C147.633 249.922 147.422 249.953 147.203 250.016C146.99 250.078 146.779 250.161 146.57 250.266C146.367 250.37 146.177 250.492 146 250.633C145.823 250.768 145.677 250.911 145.562 251.062V257H143.969V249.297L145.109 248.852ZM163.945 257C163.737 256.896 163.56 256.75 163.414 256.562C163.273 256.37 163.203 256.151 163.203 255.906C163.016 256.047 162.831 256.193 162.648 256.344C162.471 256.495 162.276 256.633 162.062 256.758C161.854 256.878 161.62 256.977 161.359 257.055C161.104 257.133 160.807 257.172 160.469 257.172C160.156 257.172 159.872 257.12 159.617 257.016C159.367 256.917 159.154 256.779 158.977 256.602C158.805 256.424 158.669 256.214 158.57 255.969C158.477 255.724 158.43 255.461 158.43 255.18C158.43 254.836 158.497 254.526 158.633 254.25C158.768 253.974 158.953 253.729 159.188 253.516C159.427 253.297 159.703 253.104 160.016 252.938C160.328 252.766 160.661 252.615 161.016 252.484C161.37 252.349 161.734 252.229 162.109 252.125C162.484 252.021 162.849 251.924 163.203 251.836V251.336C163.203 250.971 163.177 250.664 163.125 250.414C163.073 250.164 162.992 249.964 162.883 249.812C162.773 249.656 162.633 249.547 162.461 249.484C162.294 249.417 162.094 249.383 161.859 249.383C161.635 249.383 161.43 249.427 161.242 249.516C161.055 249.604 160.888 249.724 160.742 249.875C160.602 250.021 160.484 250.195 160.391 250.398C160.302 250.596 160.242 250.807 160.211 251.031H158.758C158.799 250.688 158.917 250.38 159.109 250.109C159.307 249.839 159.555 249.612 159.852 249.43C160.148 249.242 160.484 249.099 160.859 249C161.24 248.901 161.633 248.852 162.039 248.852C162.56 248.852 162.997 248.904 163.352 249.008C163.706 249.107 163.99 249.247 164.203 249.43C164.417 249.612 164.568 249.836 164.656 250.102C164.75 250.362 164.797 250.651 164.797 250.969V255.906C164.797 256.151 164.867 256.37 165.008 256.562C165.154 256.75 165.331 256.896 165.539 257H163.945ZM163.203 252.344C162.974 252.417 162.737 252.5 162.492 252.594C162.247 252.688 162.008 252.794 161.773 252.914C161.539 253.029 161.315 253.154 161.102 253.289C160.888 253.424 160.701 253.57 160.539 253.727C160.378 253.883 160.25 254.047 160.156 254.219C160.062 254.391 160.016 254.57 160.016 254.758C160.016 254.956 160.052 255.143 160.125 255.32C160.198 255.492 160.294 255.646 160.414 255.781C160.534 255.911 160.672 256.016 160.828 256.094C160.984 256.167 161.146 256.203 161.312 256.203C161.49 256.203 161.659 256.18 161.82 256.133C161.982 256.086 162.138 256.023 162.289 255.945C162.44 255.862 162.591 255.768 162.742 255.664C162.893 255.56 163.047 255.448 163.203 255.328V252.344ZM174.906 249.422V250.094H173.391C173.542 250.307 173.664 250.552 173.758 250.828C173.857 251.099 173.906 251.367 173.906 251.633C173.906 252.049 173.815 252.427 173.633 252.766C173.451 253.104 173.195 253.396 172.867 253.641C172.544 253.885 172.156 254.076 171.703 254.211C171.25 254.341 170.75 254.406 170.203 254.406C170 254.406 169.792 254.391 169.578 254.359C169.37 254.328 169.188 254.286 169.031 254.234C168.88 254.359 168.753 254.505 168.648 254.672C168.544 254.833 168.492 254.997 168.492 255.164C168.492 255.326 168.578 255.453 168.75 255.547C168.927 255.641 169.177 255.695 169.5 255.711L172.453 255.844C172.927 255.865 173.32 255.922 173.633 256.016C173.951 256.104 174.203 256.227 174.391 256.383C174.578 256.534 174.711 256.714 174.789 256.922C174.867 257.13 174.906 257.365 174.906 257.625C174.906 258.089 174.797 258.508 174.578 258.883C174.365 259.263 174.055 259.586 173.648 259.852C173.242 260.117 172.745 260.323 172.156 260.469C171.573 260.615 170.911 260.688 170.172 260.688C169.51 260.688 168.932 260.648 168.438 260.57C167.943 260.492 167.531 260.38 167.203 260.234C166.875 260.094 166.63 259.922 166.469 259.719C166.307 259.521 166.227 259.297 166.227 259.047C166.227 258.828 166.281 258.617 166.391 258.414C166.5 258.216 166.641 258.023 166.812 257.836C166.984 257.654 167.174 257.477 167.383 257.305C167.591 257.133 167.797 256.969 168 256.812C167.854 256.766 167.716 256.711 167.586 256.648C167.461 256.581 167.352 256.505 167.258 256.422C167.164 256.339 167.091 256.25 167.039 256.156C166.987 256.057 166.961 255.953 166.961 255.844C166.961 255.682 167.003 255.516 167.086 255.344C167.174 255.167 167.292 255 167.438 254.844C167.589 254.682 167.76 254.536 167.953 254.406C168.151 254.271 168.362 254.164 168.586 254.086C168.049 253.857 167.628 253.539 167.32 253.133C167.018 252.721 166.867 252.25 166.867 251.719C166.867 251.328 166.956 250.958 167.133 250.609C167.315 250.26 167.565 249.956 167.883 249.695C168.201 249.435 168.57 249.229 168.992 249.078C169.419 248.927 169.88 248.852 170.375 248.852C170.615 248.852 170.849 248.867 171.078 248.898C171.312 248.93 171.529 248.971 171.727 249.023C171.93 249.076 172.107 249.135 172.258 249.203C172.414 249.271 172.536 249.344 172.625 249.422H174.906ZM168.492 256.938C168.372 257.026 168.268 257.125 168.18 257.234C168.091 257.344 168.016 257.458 167.953 257.578C167.891 257.698 167.844 257.818 167.812 257.938C167.781 258.062 167.766 258.18 167.766 258.289C167.766 258.466 167.828 258.635 167.953 258.797C168.078 258.958 168.266 259.102 168.516 259.227C168.766 259.352 169.078 259.451 169.453 259.523C169.833 259.596 170.273 259.633 170.773 259.633C171.305 259.633 171.779 259.591 172.195 259.508C172.617 259.424 172.974 259.312 173.266 259.172C173.562 259.036 173.786 258.883 173.938 258.711C174.094 258.544 174.172 258.375 174.172 258.203C174.172 258.026 174.125 257.872 174.031 257.742C173.943 257.612 173.812 257.505 173.641 257.422C173.469 257.339 173.26 257.276 173.016 257.234C172.771 257.193 172.495 257.172 172.188 257.172C171.802 257.172 171.414 257.161 171.023 257.141C170.633 257.125 170.268 257.104 169.93 257.078C169.591 257.057 169.294 257.031 169.039 257C168.784 256.974 168.602 256.953 168.492 256.938ZM170.469 253.992C170.693 253.992 170.909 253.943 171.117 253.844C171.326 253.74 171.508 253.599 171.664 253.422C171.826 253.245 171.953 253.039 172.047 252.805C172.141 252.565 172.188 252.307 172.188 252.031C172.188 251.641 172.133 251.279 172.023 250.945C171.919 250.607 171.776 250.315 171.594 250.07C171.411 249.82 171.198 249.625 170.953 249.484C170.708 249.344 170.451 249.273 170.18 249.273C169.914 249.273 169.682 249.328 169.484 249.438C169.292 249.547 169.133 249.701 169.008 249.898C168.883 250.091 168.789 250.32 168.727 250.586C168.669 250.846 168.641 251.128 168.641 251.43C168.641 251.789 168.685 252.125 168.773 252.438C168.862 252.75 168.987 253.023 169.148 253.258C169.31 253.487 169.503 253.667 169.727 253.797C169.951 253.927 170.198 253.992 170.469 253.992ZM179.773 257.172C179.232 257.172 178.721 257.07 178.242 256.867C177.768 256.664 177.354 256.388 177 256.039C176.646 255.69 176.365 255.281 176.156 254.812C175.953 254.339 175.852 253.836 175.852 253.305C175.852 252.664 175.945 252.073 176.133 251.531C176.32 250.984 176.586 250.513 176.93 250.117C177.273 249.721 177.685 249.411 178.164 249.188C178.648 248.964 179.188 248.852 179.781 248.852C180.302 248.852 180.781 248.945 181.219 249.133C181.656 249.315 182.031 249.562 182.344 249.875C182.661 250.182 182.906 250.539 183.078 250.945C183.255 251.352 183.344 251.776 183.344 252.219H177.383C177.383 252.755 177.451 253.253 177.586 253.711C177.727 254.169 177.922 254.565 178.172 254.898C178.422 255.232 178.719 255.492 179.062 255.68C179.406 255.867 179.784 255.961 180.195 255.961C180.539 255.961 180.87 255.906 181.188 255.797C181.505 255.682 181.792 255.534 182.047 255.352C182.307 255.169 182.529 254.961 182.711 254.727C182.893 254.492 183.021 254.25 183.094 254L183.555 254.203C183.44 254.615 183.255 255 183 255.359C182.745 255.719 182.445 256.034 182.102 256.305C181.763 256.57 181.393 256.781 180.992 256.938C180.591 257.094 180.185 257.172 179.773 257.172ZM181.352 251.578C181.352 251.276 181.297 250.995 181.188 250.734C181.083 250.474 180.938 250.25 180.75 250.062C180.562 249.87 180.344 249.719 180.094 249.609C179.844 249.5 179.576 249.445 179.289 249.445C179.049 249.445 178.82 249.5 178.602 249.609C178.383 249.714 178.188 249.862 178.016 250.055C177.844 250.242 177.701 250.466 177.586 250.727C177.477 250.987 177.411 251.268 177.391 251.57L181.352 251.578ZM190.234 248.852H190.688V250.469C191.172 249.927 191.674 249.523 192.195 249.258C192.716 248.987 193.245 248.852 193.781 248.852C194.062 248.852 194.323 248.914 194.562 249.039C194.807 249.164 195.021 249.336 195.203 249.555C195.385 249.773 195.529 250.031 195.633 250.328C195.737 250.62 195.789 250.932 195.789 251.266V257H194.203V251.539C194.203 251.273 194.172 251.042 194.109 250.844C194.047 250.641 193.958 250.471 193.844 250.336C193.729 250.201 193.594 250.099 193.438 250.031C193.286 249.958 193.117 249.922 192.93 249.922C192.763 249.922 192.586 249.951 192.398 250.008C192.211 250.065 192.018 250.146 191.82 250.25C191.628 250.349 191.435 250.469 191.242 250.609C191.049 250.75 190.865 250.906 190.688 251.078V257H189.094V249.297L190.234 248.852ZM202.297 257.172C201.682 257.172 201.117 257.065 200.602 256.852C200.086 256.638 199.641 256.349 199.266 255.984C198.891 255.615 198.596 255.185 198.383 254.695C198.174 254.201 198.07 253.672 198.07 253.109C198.07 252.521 198.174 251.969 198.383 251.453C198.596 250.932 198.891 250.479 199.266 250.094C199.641 249.708 200.086 249.406 200.602 249.188C201.117 248.964 201.682 248.852 202.297 248.852C202.906 248.852 203.466 248.953 203.977 249.156C204.492 249.359 204.938 249.638 205.312 249.992C205.688 250.346 205.979 250.763 206.188 251.242C206.401 251.716 206.508 252.227 206.508 252.773C206.508 253.378 206.401 253.948 206.188 254.484C205.979 255.016 205.688 255.482 205.312 255.883C204.938 256.279 204.492 256.594 203.977 256.828C203.466 257.057 202.906 257.172 202.297 257.172ZM202.602 256.586C202.914 256.586 203.201 256.505 203.461 256.344C203.721 256.182 203.945 255.966 204.133 255.695C204.32 255.419 204.466 255.102 204.57 254.742C204.674 254.383 204.727 254.003 204.727 253.602C204.727 253.023 204.677 252.482 204.578 251.977C204.479 251.471 204.318 251.031 204.094 250.656C203.87 250.281 203.578 249.987 203.219 249.773C202.859 249.555 202.422 249.445 201.906 249.445C201.641 249.445 201.383 249.523 201.133 249.68C200.883 249.831 200.661 250.039 200.469 250.305C200.281 250.57 200.13 250.883 200.016 251.242C199.901 251.596 199.844 251.974 199.844 252.375C199.844 252.958 199.904 253.505 200.023 254.016C200.148 254.526 200.328 254.971 200.562 255.352C200.802 255.732 201.091 256.034 201.43 256.258C201.773 256.477 202.164 256.586 202.602 256.586ZM210.445 246.281H210.898V249H212.68V249.68H210.898V255.312C210.898 255.432 210.919 255.544 210.961 255.648C211.008 255.753 211.068 255.844 211.141 255.922C211.219 256 211.31 256.062 211.414 256.109C211.518 256.151 211.633 256.172 211.758 256.172C211.935 256.172 212.096 256.128 212.242 256.039C212.388 255.951 212.516 255.841 212.625 255.711L213.023 255.977C212.805 256.346 212.521 256.638 212.172 256.852C211.823 257.065 211.391 257.172 210.875 257.172C210.609 257.172 210.378 257.125 210.18 257.031C209.982 256.943 209.818 256.818 209.688 256.656C209.562 256.49 209.469 256.294 209.406 256.07C209.344 255.841 209.312 255.589 209.312 255.312V249.68H207.922V249.383L209.312 249V246.727L210.445 246.281ZM221.719 245.516C221.547 245.516 221.388 245.562 221.242 245.656C221.102 245.745 220.979 245.865 220.875 246.016C220.776 246.161 220.698 246.331 220.641 246.523C220.589 246.716 220.562 246.914 220.562 247.117V249H222.695V249.68H220.562V257H218.969V249.68H217.305V249H218.969V248.078C218.969 247.641 219.047 247.232 219.203 246.852C219.359 246.466 219.57 246.133 219.836 245.852C220.107 245.565 220.422 245.339 220.781 245.172C221.146 245.005 221.534 244.922 221.945 244.922C222.227 244.922 222.497 244.958 222.758 245.031C223.023 245.104 223.268 245.208 223.492 245.344C223.716 245.474 223.914 245.638 224.086 245.836C224.263 246.029 224.404 246.245 224.508 246.484L223.352 247.32C223.294 247.112 223.227 246.901 223.148 246.688C223.07 246.474 222.971 246.281 222.852 246.109C222.732 245.932 222.581 245.789 222.398 245.68C222.216 245.57 221.99 245.516 221.719 245.516ZM227.797 257.172C227.182 257.172 226.617 257.065 226.102 256.852C225.586 256.638 225.141 256.349 224.766 255.984C224.391 255.615 224.096 255.185 223.883 254.695C223.674 254.201 223.57 253.672 223.57 253.109C223.57 252.521 223.674 251.969 223.883 251.453C224.096 250.932 224.391 250.479 224.766 250.094C225.141 249.708 225.586 249.406 226.102 249.188C226.617 248.964 227.182 248.852 227.797 248.852C228.406 248.852 228.966 248.953 229.477 249.156C229.992 249.359 230.438 249.638 230.812 249.992C231.188 250.346 231.479 250.763 231.688 251.242C231.901 251.716 232.008 252.227 232.008 252.773C232.008 253.378 231.901 253.948 231.688 254.484C231.479 255.016 231.188 255.482 230.812 255.883C230.438 256.279 229.992 256.594 229.477 256.828C228.966 257.057 228.406 257.172 227.797 257.172ZM228.102 256.586C228.414 256.586 228.701 256.505 228.961 256.344C229.221 256.182 229.445 255.966 229.633 255.695C229.82 255.419 229.966 255.102 230.07 254.742C230.174 254.383 230.227 254.003 230.227 253.602C230.227 253.023 230.177 252.482 230.078 251.977C229.979 251.471 229.818 251.031 229.594 250.656C229.37 250.281 229.078 249.987 228.719 249.773C228.359 249.555 227.922 249.445 227.406 249.445C227.141 249.445 226.883 249.523 226.633 249.68C226.383 249.831 226.161 250.039 225.969 250.305C225.781 250.57 225.63 250.883 225.516 251.242C225.401 251.596 225.344 251.974 225.344 252.375C225.344 252.958 225.404 253.505 225.523 254.016C225.648 254.526 225.828 254.971 226.062 255.352C226.302 255.732 226.591 256.034 226.93 256.258C227.273 256.477 227.664 256.586 228.102 256.586ZM235.859 249V254.695C235.859 254.893 235.904 255.081 235.992 255.258C236.086 255.435 236.214 255.589 236.375 255.719C236.536 255.849 236.721 255.953 236.93 256.031C237.143 256.104 237.372 256.141 237.617 256.141C237.773 256.141 237.94 256.107 238.117 256.039C238.299 255.971 238.477 255.88 238.648 255.766C238.82 255.646 238.979 255.508 239.125 255.352C239.276 255.19 239.404 255.021 239.508 254.844V249H241.086V257H239.508V255.5C239.367 255.729 239.19 255.945 238.977 256.148C238.768 256.352 238.542 256.529 238.297 256.68C238.052 256.831 237.799 256.951 237.539 257.039C237.279 257.128 237.031 257.172 236.797 257.172C236.448 257.172 236.12 257.107 235.812 256.977C235.505 256.846 235.237 256.669 235.008 256.445C234.779 256.221 234.596 255.958 234.461 255.656C234.331 255.354 234.266 255.034 234.266 254.695V249H235.859ZM245.047 248.852H245.5V250.469C245.984 249.927 246.487 249.523 247.008 249.258C247.529 248.987 248.057 248.852 248.594 248.852C248.875 248.852 249.135 248.914 249.375 249.039C249.62 249.164 249.833 249.336 250.016 249.555C250.198 249.773 250.341 250.031 250.445 250.328C250.549 250.62 250.602 250.932 250.602 251.266V257H249.016V251.539C249.016 251.273 248.984 251.042 248.922 250.844C248.859 250.641 248.771 250.471 248.656 250.336C248.542 250.201 248.406 250.099 248.25 250.031C248.099 249.958 247.93 249.922 247.742 249.922C247.576 249.922 247.398 249.951 247.211 250.008C247.023 250.065 246.831 250.146 246.633 250.25C246.44 250.349 246.247 250.469 246.055 250.609C245.862 250.75 245.677 250.906 245.5 251.078V257H243.906V249.297L245.047 248.852ZM258.906 256.227C258.724 256.372 258.526 256.505 258.312 256.625C258.099 256.74 257.875 256.839 257.641 256.922C257.411 257 257.18 257.06 256.945 257.102C256.711 257.148 256.482 257.172 256.258 257.172C255.789 257.172 255.349 257.062 254.938 256.844C254.531 256.625 254.174 256.331 253.867 255.961C253.565 255.591 253.326 255.161 253.148 254.672C252.971 254.177 252.883 253.656 252.883 253.109C252.883 252.568 252.992 252.042 253.211 251.531C253.435 251.021 253.737 250.568 254.117 250.172C254.497 249.771 254.94 249.451 255.445 249.211C255.956 248.971 256.5 248.852 257.078 248.852C257.469 248.852 257.807 248.919 258.094 249.055C258.385 249.19 258.656 249.37 258.906 249.594V245.375L260.023 244.922H260.484V257H258.906V256.227ZM258.906 251.547C258.906 251.234 258.846 250.951 258.727 250.695C258.612 250.435 258.461 250.214 258.273 250.031C258.086 249.844 257.872 249.701 257.633 249.602C257.398 249.497 257.161 249.445 256.922 249.445C256.604 249.445 256.307 249.523 256.031 249.68C255.755 249.836 255.513 250.057 255.305 250.344C255.102 250.625 254.94 250.964 254.82 251.359C254.701 251.75 254.641 252.182 254.641 252.656C254.641 253.167 254.706 253.643 254.836 254.086C254.966 254.529 255.143 254.917 255.367 255.25C255.596 255.578 255.862 255.839 256.164 256.031C256.471 256.219 256.799 256.312 257.148 256.312C257.315 256.312 257.482 256.292 257.648 256.25C257.82 256.203 257.982 256.143 258.133 256.07C258.284 255.992 258.424 255.904 258.555 255.805C258.69 255.706 258.807 255.602 258.906 255.492V251.547Z" fill="#BCB5A9"/>
</svg>
